<?xml version="1.0" encoding="UTF-8" standalone="no"?>
<!-- Created with Inkscape (http://www.inkscape.org/) -->

<svg
   version="1.1"
   id="svg1"
   width="72"
   height="72"
   viewBox="0 0 72 72"
   xmlns="http://www.w3.org/2000/svg"
   xmlns:svg="http://www.w3.org/2000/svg">
  <defs
     id="defs1" />
  <g
     id="g1">
    <circle
       style="display:inline;fill:#f0e6d2;fill-opacity:1;stroke-width:0.324;stroke-linecap:round;stroke-linejoin:round;stroke-miterlimit:3.5"
       id="path1"
       cx="36"
       cy="36"
       r="18" />
    <path
       id="circle2"
       style="display:inline;fill:#f0e6d2;fill-opacity:1;stroke-width:0.63;stroke-linecap:round;stroke-linejoin:round;stroke-miterlimit:3.5"
       d="M 36,1 A 35,35 0 0 0 1,36 35,35 0 0 0 36,71 35,35 0 0 0 71,36 35,35 0 0 0 36,1 Z m 0,8 A 27,27 0 0 1 63,36 27,27 0 0 1 36,63 27,27 0 0 1 9,36 27,27 0 0 1 36,9 Z" />
  </g>
</svg>
