<?xml version="1.0" ?>
<svg xmlns="http://www.w3.org/2000/svg" width="24.0" height="24.0" viewBox="0 0 24.0 24.0">
  <path d="M 19.73 21 L 21 19.73 L 4.27 3 L 3 4.27 Z" fill="#b3bac2ff" stroke-width="1.0"/>
  <path d="M 3 9 L 3 15 L 7 15 L 12 20 L 12 4 L 7 9 L 3 9 Z M 16.5 12 C 16.5 10.23 15.48 8.71 14 7.97 L 14 16.02 C 15.48 15.29 16.5 13.77 16.5 12 Z M 14 3.23 L 14 5.29 C 16.89 6.15 19 8.83 19 12 C 19 15.17 16.89 17.85 14 18.71 L 14 20.77 C 18.01 19.86 21 16.28 21 12 C 21 7.72 18.01 4.14 14 3.23 Z" fill="#b3bac2ff" stroke-width="1.0"/>
</svg>
