<?xml version="1.0" ?>
<svg xmlns="http://www.w3.org/2000/svg" width="400.0" height="400.0" viewBox="0 0 400.0 400.0">
  <path d="M63,213h113v113H63Z" fill="#6e7b8dff"/>
  <path d="M109,57h22l16,5 10,6 10,9 8,11 5,11 3,14v14l-4,16 -6,12 -11,12 -9,7 -10,5 -16,4h-14l-14,-3 -16,-8 -12,-11 -7,-10 -5,-12 -2,-8v-22l3,-12 7,-13 9,-11 11,-8 13,-6Z" fill="#e84039ff"/>
  <path d="M231,63h77l9,4 7,8 2,7v76l-3,8 -4,5 -10,5h-80l-8,-4 -6,-7 -2,-5V80l3,-7 4,-5 7,-4Z" fill="#fcbe46ff"/>
  <path d="m270,197 l4,2 70,70 -1,4 -71,71 -4,-1 -71,-71 2,-4Z" fill="#243753ff"/>
</svg>
